<svg width="1280" height="640" viewBox="0 0 1280 640" fill="none" xmlns="http://www.w3.org/2000/svg">
<rect width="1280" height="640" fill="#E5E5E5"/>
<rect width="1280" height="640" fill="#F7F176"/>
<path d="M601 170.3V200.7C598.2 202.3 594.867 203.567 591 204.5C587.133 205.367 583.2 205.8 579.2 205.8C573.467 205.8 568.3 204.9 563.7 203.1C559.167 201.3 555.267 198.833 552 195.7C548.733 192.5 546.233 188.733 544.5 184.4C542.767 180.067 541.9 175.333 541.9 170.2C541.9 164.533 542.9 159.367 544.9 154.7C546.967 149.967 549.733 145.9 553.2 142.5C556.733 139.1 560.767 136.467 565.3 134.6C569.9 132.667 574.767 131.7 579.9 131.7C583.367 131.7 587 132.167 590.8 133.1C594.6 133.967 597.9 135.233 600.7 136.9L595.4 145.8C594.4 145.2 593.233 144.667 591.9 144.2C590.633 143.733 589.3 143.333 587.9 143C586.5 142.667 585.1 142.433 583.7 142.3C582.3 142.1 580.967 142 579.7 142C576.167 142 572.767 142.7 569.5 144.1C566.233 145.5 563.367 147.433 560.9 149.9C558.433 152.367 556.467 155.267 555 158.6C553.533 161.933 552.8 165.533 552.8 169.4C552.8 172.933 553.433 176.267 554.7 179.4C556.033 182.533 557.867 185.3 560.2 187.7C562.533 190.1 565.333 192 568.6 193.4C571.867 194.8 575.467 195.5 579.4 195.5C580.933 195.5 582.733 195.367 584.8 195.1C586.933 194.767 588.967 194.233 590.9 193.5V179.7H576.8V170.3H601ZM610.283 147.2C610.283 145.6 610.849 144.267 611.983 143.2C613.183 142.133 614.449 141.6 615.783 141.6C617.116 141.6 618.349 142.133 619.483 143.2C620.616 144.267 621.183 145.6 621.183 147.2C621.183 148.8 620.616 150.133 619.483 151.2C618.349 152.2 617.116 152.7 615.783 152.7C614.449 152.7 613.183 152.2 611.983 151.2C610.849 150.133 610.283 148.8 610.283 147.2ZM619.883 205H611.383V163.2H619.883V205ZM635.491 144.8H643.991V163.3H655.191V170.9H643.991V205H635.491V170.9H627.991V163.3H635.491V144.8ZM663.306 205V132.5H674.206V163.3H710.506V132.5H721.506C721.506 133.367 721.506 135 721.506 137.4C721.506 139.733 721.506 142.533 721.506 145.8C721.506 149.067 721.506 152.7 721.506 156.7C721.506 160.633 721.473 164.667 721.406 168.8C721.406 172.867 721.406 176.9 721.406 180.9C721.406 184.833 721.406 188.433 721.406 191.7C721.406 194.967 721.406 197.8 721.406 200.2C721.406 202.533 721.406 204.133 721.406 205H710.506V173.7H674.206V205H663.306ZM774.404 205.9H767.204L766.204 194.3C764.671 197.7 762.504 200.5 759.704 202.7C756.971 204.9 753.471 206 749.204 206C744.937 206 741.537 204.867 739.004 202.6C736.537 200.267 735.237 197.233 735.104 193.5V163.2H743.604V189.7C743.737 191.767 744.471 193.533 745.804 195C747.204 196.467 749.337 197.3 752.204 197.5C754.204 197.5 756.037 197.167 757.704 196.5C759.371 195.767 760.804 194.8 762.004 193.6C763.204 192.4 764.137 190.967 764.804 189.3C765.471 187.633 765.804 185.8 765.804 183.8V163.2H774.404V205.9ZM831.083 184.2C831.083 187.333 830.549 190.233 829.483 192.9C828.416 195.567 826.916 197.867 824.983 199.8C823.049 201.733 820.716 203.267 817.983 204.4C815.316 205.467 812.383 206 809.183 206C807.516 206 805.916 205.8 804.383 205.4C802.916 205.067 801.549 204.6 800.283 204C799.016 203.333 797.916 202.633 796.983 201.9C796.049 201.1 795.349 200.3 794.883 199.5C794.883 199.833 794.883 200.2 794.883 200.6C794.949 200.933 794.983 201.267 794.983 201.6V205H786.383V127.3H794.983V169.3C795.516 168.5 796.216 167.7 797.083 166.9C798.016 166.033 799.083 165.267 800.283 164.6C801.549 163.867 802.949 163.267 804.483 162.8C806.016 162.333 807.716 162.1 809.583 162.1C812.783 162.1 815.683 162.633 818.283 163.7C820.949 164.7 823.216 166.167 825.083 168.1C827.016 169.967 828.483 172.267 829.483 175C830.549 177.733 831.083 180.8 831.083 184.2ZM821.783 184C821.783 182.067 821.483 180.3 820.883 178.7C820.283 177.033 819.416 175.6 818.283 174.4C817.149 173.2 815.783 172.267 814.183 171.6C812.583 170.867 810.783 170.5 808.783 170.5C806.783 170.5 804.916 170.867 803.183 171.6C801.516 172.267 800.083 173.2 798.883 174.4C797.683 175.6 796.716 177.033 795.983 178.7C795.316 180.3 794.983 182.067 794.983 184C794.983 185.933 795.316 187.733 795.983 189.4C796.716 191.067 797.683 192.5 798.883 193.7C800.083 194.9 801.516 195.867 803.183 196.6C804.916 197.267 806.783 197.6 808.783 197.6C810.783 197.6 812.583 197.267 814.183 196.6C815.783 195.867 817.149 194.9 818.283 193.7C819.416 192.433 820.283 191 820.883 189.4C821.483 187.733 821.783 185.933 821.783 184ZM911.234 205C910.9 204.267 910.434 203.2 909.834 201.8C909.234 200.4 908.534 198.8 907.734 197C907 195.133 906.167 193.133 905.234 191C904.367 188.8 903.467 186.533 902.534 184.2H876.934L868.334 205H857.534L889.834 129.1C890.234 130.033 890.934 131.733 891.934 134.2C893 136.667 894.234 139.633 895.634 143.1C897.1 146.5 898.7 150.3 900.434 154.5C902.234 158.633 904.034 162.833 905.834 167.1C907.7 171.367 909.5 175.567 911.234 179.7C913.034 183.833 914.667 187.633 916.134 191.1C917.6 194.567 918.834 197.533 919.834 200C920.9 202.4 921.634 204.067 922.034 205H911.234ZM880.734 175H898.834C897.9 172.8 897 170.7 896.134 168.7C895.334 166.633 894.567 164.767 893.834 163.1C893.167 161.367 892.567 159.867 892.034 158.6C891.5 157.333 891.1 156.333 890.834 155.6C890.767 155.467 890.6 155 890.334 154.2C890.134 153.4 889.967 152.667 889.834 152C889.7 152.667 889.5 153.4 889.234 154.2C888.967 155 888.8 155.467 888.734 155.6L880.734 175ZM955.105 194.7C956.039 195.833 956.905 196.933 957.705 198C958.572 199 959.439 200.067 960.305 201.2C958.439 202.667 956.339 203.833 954.005 204.7C951.672 205.567 949.139 206 946.405 206C943.339 206 940.439 205.433 937.705 204.3C935.039 203.1 932.705 201.5 930.705 199.5C928.705 197.5 927.105 195.167 925.905 192.5C924.772 189.833 924.205 187 924.205 184C924.205 181 924.772 178.167 925.905 175.5C927.105 172.833 928.705 170.533 930.705 168.6C932.705 166.6 935.039 165.033 937.705 163.9C940.439 162.7 943.339 162.1 946.405 162.1C949.205 162.1 951.772 162.533 954.105 163.4C956.505 164.267 958.672 165.433 960.605 166.9L955.105 173.4C953.972 172.467 952.672 171.767 951.205 171.3C949.739 170.767 948.139 170.5 946.405 170.5C944.405 170.5 942.572 170.867 940.905 171.6C939.239 172.267 937.772 173.2 936.505 174.4C935.305 175.6 934.372 177.033 933.705 178.7C933.039 180.3 932.705 182.067 932.705 184C932.705 185.933 933.039 187.733 933.705 189.4C934.372 191 935.305 192.433 936.505 193.7C937.772 194.9 939.239 195.867 940.905 196.6C942.572 197.267 944.405 197.6 946.405 197.6C948.139 197.6 949.739 197.367 951.205 196.9C952.672 196.367 953.972 195.633 955.105 194.7ZM972.307 144.8H980.807V163.3H992.007V170.9H980.807V205H972.307V170.9H964.807V163.3H972.307V144.8ZM997.978 147.2C997.978 145.6 998.545 144.267 999.678 143.2C1000.88 142.133 1002.14 141.6 1003.48 141.6C1004.81 141.6 1006.04 142.133 1007.18 143.2C1008.31 144.267 1008.88 145.6 1008.88 147.2C1008.88 148.8 1008.31 150.133 1007.18 151.2C1006.04 152.2 1004.81 152.7 1003.48 152.7C1002.14 152.7 1000.88 152.2 999.678 151.2C998.545 150.133 997.978 148.8 997.978 147.2ZM1007.58 205H999.078V163.2H1007.58V205ZM1016.69 184C1016.69 181 1017.25 178.167 1018.39 175.5C1019.59 172.833 1021.19 170.533 1023.19 168.6C1025.19 166.6 1027.52 165.033 1030.19 163.9C1032.92 162.7 1035.85 162.1 1038.99 162.1C1042.12 162.1 1045.02 162.7 1047.69 163.9C1050.42 165.033 1052.75 166.6 1054.69 168.6C1056.69 170.533 1058.22 172.833 1059.29 175.5C1060.42 178.167 1060.99 181 1060.99 184C1060.99 187 1060.42 189.833 1059.29 192.5C1058.22 195.167 1056.69 197.5 1054.69 199.5C1052.75 201.5 1050.42 203.1 1047.69 204.3C1045.02 205.433 1042.09 206 1038.89 206C1035.82 206 1032.92 205.467 1030.19 204.4C1027.52 203.333 1025.19 201.833 1023.19 199.9C1021.19 197.967 1019.59 195.667 1018.39 193C1017.25 190.267 1016.69 187.267 1016.69 184ZM1025.19 184.1C1025.19 185.967 1025.52 187.733 1026.19 189.4C1026.92 191 1027.89 192.433 1029.09 193.7C1030.35 194.9 1031.79 195.867 1033.39 196.6C1035.05 197.267 1036.82 197.6 1038.69 197.6C1040.55 197.6 1042.32 197.267 1043.99 196.6C1045.65 195.867 1047.09 194.9 1048.29 193.7C1049.55 192.433 1050.55 191 1051.29 189.4C1052.02 187.733 1052.39 185.967 1052.39 184.1C1052.39 182.233 1052.02 180.467 1051.29 178.8C1050.55 177.133 1049.55 175.7 1048.29 174.5C1047.09 173.233 1045.65 172.267 1043.99 171.6C1042.32 170.867 1040.55 170.5 1038.69 170.5C1036.82 170.5 1035.05 170.867 1033.39 171.6C1031.79 172.267 1030.35 173.233 1029.09 174.5C1027.89 175.7 1026.92 177.133 1026.19 178.8C1025.52 180.467 1025.19 182.233 1025.19 184.1ZM1070.07 163.2H1077.57C1077.71 165.267 1077.81 167.167 1077.87 168.9C1078.01 170.567 1078.14 172.233 1078.27 173.9C1079.81 170.3 1081.97 167.433 1084.77 165.3C1087.64 163.167 1091.14 162.1 1095.27 162.1C1099.47 162.1 1102.84 163.267 1105.37 165.6C1107.91 167.933 1109.24 170.933 1109.37 174.6V205H1100.77V178.5C1100.64 176.367 1099.91 174.567 1098.57 173.1C1097.24 171.567 1095.14 170.733 1092.27 170.6C1090.27 170.6 1088.44 170.967 1086.77 171.7C1085.11 172.367 1083.67 173.3 1082.47 174.5C1081.27 175.7 1080.31 177.133 1079.57 178.8C1078.91 180.467 1078.57 182.3 1078.57 184.3V205H1070.07V163.2ZM1144.25 166.9L1139.75 172.9C1139.69 172.833 1139.45 172.667 1139.05 172.4C1138.65 172.133 1138.12 171.867 1137.45 171.6C1136.85 171.333 1136.12 171.1 1135.25 170.9C1134.45 170.633 1133.62 170.5 1132.75 170.5C1131.62 170.5 1130.49 170.767 1129.35 171.3C1128.29 171.833 1127.75 172.833 1127.75 174.3C1127.75 175.567 1128.19 176.6 1129.05 177.4C1129.99 178.2 1131.12 178.933 1132.45 179.6C1133.79 180.2 1135.22 180.833 1136.75 181.5C1138.35 182.167 1139.82 183 1141.15 184C1142.49 184.933 1143.59 186.133 1144.45 187.6C1145.39 189 1145.85 190.8 1145.85 193C1145.85 196.733 1144.55 199.833 1141.95 202.3C1139.42 204.7 1135.92 205.9 1131.45 205.9C1128.85 205.9 1126.29 205.467 1123.75 204.6C1121.29 203.667 1119.29 202.333 1117.75 200.6C1118.22 200.133 1118.72 199.533 1119.25 198.8C1119.85 198.067 1120.42 197.367 1120.95 196.7C1121.55 196.033 1122.02 195.5 1122.35 195.1C1122.75 194.633 1122.99 194.4 1123.05 194.4C1123.05 194.467 1123.29 194.667 1123.75 195C1124.29 195.333 1124.95 195.7 1125.75 196.1C1126.55 196.433 1127.45 196.767 1128.45 197.1C1129.45 197.367 1130.45 197.5 1131.45 197.5C1133.05 197.5 1134.42 197.1 1135.55 196.3C1136.69 195.5 1137.25 194.433 1137.25 193.1C1137.25 191.9 1136.79 190.967 1135.85 190.3C1134.99 189.567 1133.89 188.9 1132.55 188.3C1131.22 187.7 1129.75 187.1 1128.15 186.5C1126.55 185.833 1125.09 185 1123.75 184C1122.42 183 1121.29 181.767 1120.35 180.3C1119.49 178.767 1119.05 176.8 1119.05 174.4C1119.05 172.133 1119.45 170.233 1120.25 168.7C1121.12 167.167 1122.19 165.933 1123.45 165C1124.79 164 1126.25 163.3 1127.85 162.9C1129.45 162.433 1130.99 162.2 1132.45 162.2C1134.39 162.2 1136.45 162.6 1138.65 163.4C1140.85 164.2 1142.72 165.367 1144.25 166.9ZM540.4 321.5V313.1H547.5V303.4C547.5 294.667 549.533 288.2 553.6 284C557.733 279.733 563.567 277.5 571.1 277.3V285.5C565.9 285.767 562.1 287.433 559.7 290.5C557.3 293.567 556.1 297.933 556.1 303.6V313.1H569.3V321.5H556.1V355H547.5V321.5H540.4ZM572.448 334C572.448 331 573.014 328.167 574.148 325.5C575.348 322.833 576.948 320.533 578.948 318.6C580.948 316.6 583.281 315.033 585.948 313.9C588.681 312.7 591.614 312.1 594.748 312.1C597.881 312.1 600.781 312.7 603.448 313.9C606.181 315.033 608.514 316.6 610.448 318.6C612.448 320.533 613.981 322.833 615.048 325.5C616.181 328.167 616.748 331 616.748 334C616.748 337 616.181 339.833 615.048 342.5C613.981 345.167 612.448 347.5 610.448 349.5C608.514 351.5 606.181 353.1 603.448 354.3C600.781 355.433 597.848 356 594.648 356C591.581 356 588.681 355.467 585.948 354.4C583.281 353.333 580.948 351.833 578.948 349.9C576.948 347.967 575.348 345.667 574.148 343C573.014 340.267 572.448 337.267 572.448 334ZM580.948 334.1C580.948 335.967 581.281 337.733 581.948 339.4C582.681 341 583.648 342.433 584.848 343.7C586.114 344.9 587.548 345.867 589.148 346.6C590.814 347.267 592.581 347.6 594.448 347.6C596.314 347.6 598.081 347.267 599.748 346.6C601.414 345.867 602.848 344.9 604.048 343.7C605.314 342.433 606.314 341 607.048 339.4C607.781 337.733 608.148 335.967 608.148 334.1C608.148 332.233 607.781 330.467 607.048 328.8C606.314 327.133 605.314 325.7 604.048 324.5C602.848 323.233 601.414 322.267 599.748 321.6C598.081 320.867 596.314 320.5 594.448 320.5C592.581 320.5 590.814 320.867 589.148 321.6C587.548 322.267 586.114 323.233 584.848 324.5C583.648 325.7 582.681 327.133 581.948 328.8C581.281 330.467 580.948 332.233 580.948 334.1ZM648.836 323.1C646.969 323.1 645.169 323.367 643.436 323.9C641.703 324.367 640.136 325.1 638.736 326.1C637.403 327.1 636.336 328.367 635.536 329.9C634.736 331.367 634.336 333.067 634.336 335V355H625.836V313.2H633.336C633.469 315.267 633.569 317.167 633.636 318.9C633.769 320.567 633.903 322.233 634.036 323.9C634.903 322.1 636.036 320.467 637.436 319C638.836 317.533 640.336 316.3 641.936 315.3C643.536 314.3 645.103 313.533 646.636 313C648.169 312.4 649.536 312.1 650.736 312.1L648.836 323.1ZM567 473.1C565.133 473.1 563.333 473.367 561.6 473.9C559.867 474.367 558.3 475.1 556.9 476.1C555.567 477.1 554.5 478.367 553.7 479.9C552.9 481.367 552.5 483.067 552.5 485V505H544V463.2H551.5C551.633 465.267 551.733 467.167 551.8 468.9C551.933 470.567 552.067 472.233 552.2 473.9C553.067 472.1 554.2 470.467 555.6 469C557 467.533 558.5 466.3 560.1 465.3C561.7 464.3 563.267 463.533 564.8 463C566.333 462.4 567.7 462.1 568.9 462.1L567 473.1ZM571.373 484.5C571.373 481.433 571.94 478.567 573.073 475.9C574.273 473.167 575.873 470.8 577.873 468.8C579.873 466.733 582.173 465.1 584.773 463.9C587.44 462.7 590.273 462.1 593.273 462.1C595.273 462.1 597.107 462.367 598.773 462.9C600.44 463.367 601.873 463.967 603.073 464.7C604.273 465.433 605.24 466.2 605.973 467C606.707 467.8 607.207 468.5 607.473 469.1L607.873 463.2H616.073V505H607.473V499.7C607.14 500.233 606.607 500.867 605.873 501.6C605.14 502.333 604.173 503.033 602.973 503.7C601.84 504.3 600.473 504.833 598.873 505.3C597.273 505.767 595.44 506 593.373 506C590.173 506 587.207 505.433 584.473 504.3C581.807 503.1 579.507 501.533 577.573 499.6C575.64 497.6 574.107 495.3 572.973 492.7C571.907 490.1 571.373 487.367 571.373 484.5ZM579.973 484C579.973 485.933 580.307 487.733 580.973 489.4C581.707 491.067 582.673 492.5 583.873 493.7C585.073 494.9 586.507 495.867 588.173 496.6C589.84 497.267 591.673 497.6 593.673 497.6C595.673 497.6 597.507 497.267 599.173 496.6C600.907 495.867 602.373 494.9 603.573 493.7C604.84 492.433 605.807 491 606.473 489.4C607.14 487.733 607.473 485.933 607.473 484C607.473 482.067 607.14 480.3 606.473 478.7C605.807 477.033 604.84 475.6 603.573 474.4C602.373 473.2 600.907 472.267 599.173 471.6C597.507 470.867 595.673 470.5 593.673 470.5C591.673 470.5 589.84 470.867 588.173 471.6C586.507 472.267 585.073 473.2 583.873 474.4C582.673 475.6 581.707 477.033 580.973 478.7C580.307 480.3 579.973 482.067 579.973 484ZM644.382 507.5C640.449 500.033 636.749 492.667 633.282 485.4C629.882 478.067 626.282 470.667 622.482 463.2H631.782C634.182 467.933 636.082 471.8 637.482 474.8C638.949 477.8 640.115 480.3 640.982 482.3C641.849 484.3 642.515 486 642.982 487.4C643.449 488.733 643.915 490.1 644.382 491.5C644.915 490.1 645.415 488.733 645.882 487.4C646.415 486 647.082 484.3 647.882 482.3C648.749 480.3 649.882 477.8 651.282 474.8C652.749 471.8 654.682 467.933 657.082 463.2H666.382C662.582 470.667 658.915 478.067 655.382 485.4C651.849 492.667 648.182 500.033 644.382 507.5ZM671.513 447.2C671.513 445.6 672.08 444.267 673.213 443.2C674.413 442.133 675.68 441.6 677.013 441.6C678.347 441.6 679.58 442.133 680.713 443.2C681.847 444.267 682.413 445.6 682.413 447.2C682.413 448.8 681.847 450.133 680.713 451.2C679.58 452.2 678.347 452.7 677.013 452.7C675.68 452.7 674.413 452.2 673.213 451.2C672.08 450.133 671.513 448.8 671.513 447.2ZM681.113 505H672.613V463.2H681.113V505ZM698.921 484C698.921 485.933 699.254 487.733 699.921 489.4C700.654 491.067 701.621 492.5 702.821 493.7C704.021 494.9 705.454 495.867 707.121 496.6C708.788 497.267 710.621 497.6 712.621 497.6C714.621 497.6 716.454 497.267 718.121 496.6C719.854 495.867 721.321 494.9 722.521 493.7C723.788 492.433 724.754 491 725.421 489.4C726.088 487.733 726.421 485.933 726.421 484C726.421 482.067 726.088 480.3 725.421 478.7C724.754 477.033 723.788 475.6 722.521 474.4C721.321 473.2 719.854 472.267 718.121 471.6C716.454 470.867 714.621 470.5 712.621 470.5C710.621 470.5 708.788 470.867 707.121 471.6C705.454 472.267 704.021 473.2 702.821 474.4C701.621 475.6 700.654 477.033 699.921 478.7C699.254 480.3 698.921 482.067 698.921 484ZM690.321 484.1C690.321 480.833 690.854 477.867 691.921 475.2C693.054 472.467 694.588 470.133 696.521 468.2C698.454 466.267 700.721 464.767 703.321 463.7C705.988 462.633 708.854 462.1 711.921 462.1C713.988 462.1 715.821 462.367 717.421 462.9C719.088 463.367 720.488 463.967 721.621 464.7C722.821 465.367 723.821 466.133 724.621 467C725.421 467.867 726.021 468.633 726.421 469.3C726.421 468.367 726.454 467.333 726.521 466.2C726.654 465 726.721 464 726.721 463.2H735.021V525.1H726.421V501.9C726.421 501.5 726.454 501.067 726.521 500.6C726.588 500.067 726.621 499.633 726.621 499.3C725.954 500.1 725.154 500.9 724.221 501.7C723.354 502.433 722.321 503.133 721.121 503.8C719.921 504.467 718.521 505 716.921 505.4C715.388 505.8 713.621 506 711.621 506C708.288 506 705.288 505.433 702.621 504.3C700.021 503.1 697.788 501.533 695.921 499.6C694.121 497.6 692.721 495.267 691.721 492.6C690.788 489.933 690.321 487.1 690.321 484.1ZM752.827 484C752.827 485.933 753.161 487.733 753.827 489.4C754.561 491.067 755.527 492.5 756.727 493.7C757.927 494.9 759.361 495.867 761.027 496.6C762.694 497.267 764.527 497.6 766.527 497.6C768.527 497.6 770.361 497.267 772.027 496.6C773.761 495.867 775.227 494.9 776.427 493.7C777.694 492.433 778.661 491 779.327 489.4C779.994 487.733 780.327 485.933 780.327 484C780.327 482.067 779.994 480.3 779.327 478.7C778.661 477.033 777.694 475.6 776.427 474.4C775.227 473.2 773.761 472.267 772.027 471.6C770.361 470.867 768.527 470.5 766.527 470.5C764.527 470.5 762.694 470.867 761.027 471.6C759.361 472.267 757.927 473.2 756.727 474.4C755.527 475.6 754.561 477.033 753.827 478.7C753.161 480.3 752.827 482.067 752.827 484ZM744.227 484.1C744.227 480.833 744.761 477.867 745.827 475.2C746.961 472.467 748.494 470.133 750.427 468.2C752.361 466.267 754.627 464.767 757.227 463.7C759.894 462.633 762.761 462.1 765.827 462.1C767.894 462.1 769.727 462.367 771.327 462.9C772.994 463.367 774.394 463.967 775.527 464.7C776.727 465.367 777.727 466.133 778.527 467C779.327 467.867 779.927 468.633 780.327 469.3C780.327 468.367 780.361 467.333 780.427 466.2C780.561 465 780.627 464 780.627 463.2H788.927V525.1H780.327V501.9C780.327 501.5 780.361 501.067 780.427 500.6C780.494 500.067 780.527 499.633 780.527 499.3C779.861 500.1 779.061 500.9 778.127 501.7C777.261 502.433 776.227 503.133 775.027 503.8C773.827 504.467 772.427 505 770.827 505.4C769.294 505.8 767.527 506 765.527 506C762.194 506 759.194 505.433 756.527 504.3C753.927 503.1 751.694 501.533 749.827 499.6C748.027 497.6 746.627 495.267 745.627 492.6C744.694 489.933 744.227 487.1 744.227 484.1ZM836.334 500.1C834.334 501.9 831.9 503.333 829.034 504.4C826.167 505.467 823.234 506 820.234 506C817.167 506 814.267 505.433 811.534 504.3C808.867 503.1 806.534 501.533 804.534 499.6C802.534 497.6 800.934 495.267 799.734 492.6C798.6 489.933 798.034 487.1 798.034 484.1C798.034 481.1 798.6 478.267 799.734 475.6C800.934 472.933 802.534 470.6 804.534 468.6C806.534 466.6 808.834 465.033 811.434 463.9C814.1 462.7 816.934 462.1 819.934 462.1C824.667 462.1 828.767 463.533 832.234 466.4C835.767 469.2 838.3 472.9 839.834 477.5C837.767 478.233 835.4 479.133 832.734 480.2C830.067 481.267 827.3 482.4 824.434 483.6C821.567 484.733 818.7 485.867 815.834 487C812.967 488.133 810.3 489.167 807.834 490.1C808.967 492.367 810.6 494.2 812.734 495.6C814.934 496.933 817.367 497.6 820.034 497.6C821.834 497.6 823.634 497.267 825.434 496.6C827.3 495.933 828.8 495.033 829.934 493.9L836.334 500.1ZM829.134 475.5C828.334 473.833 827.067 472.6 825.334 471.8C823.6 470.933 821.834 470.5 820.034 470.5C818.1 470.5 816.3 470.867 814.634 471.6C813.034 472.333 811.634 473.333 810.434 474.6C809.234 475.8 808.267 477.2 807.534 478.8C806.867 480.4 806.534 482.033 806.534 483.7C806.534 484.033 806.534 484.267 806.534 484.4C806.6 484.533 806.634 484.633 806.634 484.7C808.367 484.033 810.234 483.3 812.234 482.5C814.3 481.633 816.334 480.8 818.334 480C820.334 479.133 822.267 478.333 824.134 477.6C826 476.8 827.667 476.1 829.134 475.5ZM844.323 506.9L872.523 430.4H881.823C877.023 443.2 872.289 455.967 867.623 468.7C863.023 481.367 858.323 494.1 853.523 506.9H844.323ZM899.475 505H890.975V427.3H899.475V505ZM910.478 447.2C910.478 445.6 911.045 444.267 912.178 443.2C913.378 442.133 914.645 441.6 915.978 441.6C917.311 441.6 918.545 442.133 919.678 443.2C920.811 444.267 921.378 445.6 921.378 447.2C921.378 448.8 920.811 450.133 919.678 451.2C918.545 452.2 917.311 452.7 915.978 452.7C914.645 452.7 913.378 452.2 912.178 451.2C911.045 450.133 910.478 448.8 910.478 447.2ZM920.078 505H911.578V463.2H920.078V505ZM960.086 494.7C961.019 495.833 961.886 496.933 962.686 498C963.553 499 964.419 500.067 965.286 501.2C963.419 502.667 961.319 503.833 958.986 504.7C956.653 505.567 954.119 506 951.386 506C948.319 506 945.419 505.433 942.686 504.3C940.019 503.1 937.686 501.5 935.686 499.5C933.686 497.5 932.086 495.167 930.886 492.5C929.753 489.833 929.186 487 929.186 484C929.186 481 929.753 478.167 930.886 475.5C932.086 472.833 933.686 470.533 935.686 468.6C937.686 466.6 940.019 465.033 942.686 463.9C945.419 462.7 948.319 462.1 951.386 462.1C954.186 462.1 956.753 462.533 959.086 463.4C961.486 464.267 963.653 465.433 965.586 466.9L960.086 473.4C958.953 472.467 957.653 471.767 956.186 471.3C954.719 470.767 953.119 470.5 951.386 470.5C949.386 470.5 947.553 470.867 945.886 471.6C944.219 472.267 942.753 473.2 941.486 474.4C940.286 475.6 939.353 477.033 938.686 478.7C938.019 480.3 937.686 482.067 937.686 484C937.686 485.933 938.019 487.733 938.686 489.4C939.353 491 940.286 492.433 941.486 493.7C942.753 494.9 944.219 495.867 945.886 496.6C947.553 497.267 949.386 497.6 951.386 497.6C953.119 497.6 954.719 497.367 956.186 496.9C957.653 496.367 958.953 495.633 960.086 494.7ZM973.688 427.3H982.188V473.3C983.654 469.967 985.721 467.3 988.388 465.3C991.054 463.233 994.488 462.167 998.688 462.1C1002.95 462.033 1006.35 463.167 1008.89 465.5C1011.49 467.833 1012.85 470.867 1012.99 474.6V505H1004.39V478.5C1004.25 476.367 1003.52 474.567 1002.19 473.1C1000.85 471.567 998.754 470.733 995.888 470.6C993.888 470.6 992.054 470.967 990.388 471.7C988.721 472.367 987.288 473.3 986.088 474.5C984.888 475.7 983.921 477.133 983.188 478.8C982.521 480.467 982.188 482.3 982.188 484.3V505H973.688V427.3ZM1059.97 500.1C1057.97 501.9 1055.53 503.333 1052.67 504.4C1049.8 505.467 1046.87 506 1043.87 506C1040.8 506 1037.9 505.433 1035.17 504.3C1032.5 503.1 1030.17 501.533 1028.17 499.6C1026.17 497.6 1024.57 495.267 1023.37 492.6C1022.23 489.933 1021.67 487.1 1021.67 484.1C1021.67 481.1 1022.23 478.267 1023.37 475.6C1024.57 472.933 1026.17 470.6 1028.17 468.6C1030.17 466.6 1032.47 465.033 1035.07 463.9C1037.73 462.7 1040.57 462.1 1043.57 462.1C1048.3 462.1 1052.4 463.533 1055.87 466.4C1059.4 469.2 1061.93 472.9 1063.47 477.5C1061.4 478.233 1059.03 479.133 1056.37 480.2C1053.7 481.267 1050.93 482.4 1048.07 483.6C1045.2 484.733 1042.33 485.867 1039.47 487C1036.6 488.133 1033.93 489.167 1031.47 490.1C1032.6 492.367 1034.23 494.2 1036.37 495.6C1038.57 496.933 1041 497.6 1043.67 497.6C1045.47 497.6 1047.27 497.267 1049.07 496.6C1050.93 495.933 1052.43 495.033 1053.57 493.9L1059.97 500.1ZM1052.77 475.5C1051.97 473.833 1050.7 472.6 1048.97 471.8C1047.23 470.933 1045.47 470.5 1043.67 470.5C1041.73 470.5 1039.93 470.867 1038.27 471.6C1036.67 472.333 1035.27 473.333 1034.07 474.6C1032.87 475.8 1031.9 477.2 1031.17 478.8C1030.5 480.4 1030.17 482.033 1030.17 483.7C1030.17 484.033 1030.17 484.267 1030.17 484.4C1030.23 484.533 1030.27 484.633 1030.27 484.7C1032 484.033 1033.87 483.3 1035.87 482.5C1037.93 481.633 1039.97 480.8 1041.97 480C1043.97 479.133 1045.9 478.333 1047.77 477.6C1049.63 476.8 1051.3 476.1 1052.77 475.5Z" fill="black"/>
<path d="M200.666 233.021H218.42V246.293H200.666V276H184.318V246.293H126.047V236.713L183.352 148.031H200.666V233.021ZM144.504 233.021H184.318V170.268L182.385 173.783L144.504 233.021ZM313.342 221.42C313.342 240.463 310.09 254.613 303.586 263.871C297.082 273.129 286.916 277.758 273.088 277.758C259.436 277.758 249.328 273.246 242.766 264.223C236.203 255.141 232.805 241.605 232.57 223.617V201.908C232.57 183.1 235.822 169.125 242.326 159.984C248.83 150.844 259.025 146.273 272.912 146.273C286.682 146.273 296.818 150.697 303.322 159.545C309.826 168.334 313.166 181.928 313.342 200.326V221.42ZM297.082 199.184C297.082 185.414 295.148 175.395 291.281 169.125C287.414 162.797 281.291 159.633 272.912 159.633C264.592 159.633 258.527 162.768 254.719 169.037C250.91 175.307 248.947 184.945 248.83 197.953V223.969C248.83 237.797 250.822 248.021 254.807 254.643C258.85 261.205 264.943 264.486 273.088 264.486C281.115 264.486 287.062 261.381 290.93 255.17C294.855 248.959 296.906 239.174 297.082 225.814V199.184ZM402.814 233.021H420.568V246.293H402.814V276H386.467V246.293H328.195V236.713L385.5 148.031H402.814V233.021ZM346.652 233.021H386.467V170.268L384.533 173.783L346.652 233.021Z" fill="#F74209"/>
<path d="M215.871 487H132.023V475.311L176.32 426.092C182.883 418.65 187.395 412.615 189.855 407.986C192.375 403.299 193.635 398.465 193.635 393.484C193.635 386.805 191.613 381.326 187.57 377.049C183.527 372.771 178.137 370.633 171.398 370.633C163.312 370.633 157.014 372.947 152.502 377.576C148.049 382.146 145.822 388.533 145.822 396.736H129.562C129.562 384.959 133.342 375.438 140.9 368.172C148.518 360.906 158.684 357.273 171.398 357.273C183.293 357.273 192.697 360.408 199.611 366.678C206.525 372.889 209.982 381.18 209.982 391.551C209.982 404.148 201.955 419.148 185.9 436.551L151.623 473.729H215.871V487ZM313.342 432.42C313.342 451.463 310.09 465.613 303.586 474.871C297.082 484.129 286.916 488.758 273.088 488.758C259.436 488.758 249.328 484.246 242.766 475.223C236.203 466.141 232.805 452.605 232.57 434.617V412.908C232.57 394.1 235.822 380.125 242.326 370.984C248.83 361.844 259.025 357.273 272.912 357.273C286.682 357.273 296.818 361.697 303.322 370.545C309.826 379.334 313.166 392.928 313.342 411.326V432.42ZM297.082 410.184C297.082 396.414 295.148 386.395 291.281 380.125C287.414 373.797 281.291 370.633 272.912 370.633C264.592 370.633 258.527 373.768 254.719 380.037C250.91 386.307 248.947 395.945 248.83 408.953V434.969C248.83 448.797 250.822 459.021 254.807 465.643C258.85 472.205 264.943 475.486 273.088 475.486C281.115 475.486 287.062 472.381 290.93 466.17C294.855 459.959 296.906 450.174 297.082 436.814V410.184ZM414.416 432.42C414.416 451.463 411.164 465.613 404.66 474.871C398.156 484.129 387.99 488.758 374.162 488.758C360.51 488.758 350.402 484.246 343.84 475.223C337.277 466.141 333.879 452.605 333.645 434.617V412.908C333.645 394.1 336.896 380.125 343.4 370.984C349.904 361.844 360.1 357.273 373.986 357.273C387.756 357.273 397.893 361.697 404.396 370.545C410.9 379.334 414.24 392.928 414.416 411.326V432.42ZM398.156 410.184C398.156 396.414 396.223 386.395 392.355 380.125C388.488 373.797 382.365 370.633 373.986 370.633C365.666 370.633 359.602 373.768 355.793 380.037C351.984 386.307 350.021 395.945 349.904 408.953V434.969C349.904 448.797 351.896 459.021 355.881 465.643C359.924 472.205 366.018 475.486 374.162 475.486C382.189 475.486 388.137 472.381 392.004 466.17C395.93 459.959 397.98 450.174 398.156 436.814V410.184Z" fill="#1DC761"/>
</svg>
